<svg xmlns="http://www.w3.org/2000/svg" viewBox="0 0 45.3 45.3"><defs><style>.cls-1{fill:#706f6f;}</style></defs><title>Fichier 2</title><g id="Calque_2" data-name="Calque 2"><g id="Calque_1-2" data-name="Calque 1"><path d="M23.15,31.15v-23h-1v23c-1.7-4.7-5.43-9.23-10.11-9.23v1c5.35,0,10.11,7.48,10.11,13.38h1c0-5.9,4.76-13.38,10.11-13.38v-1C28.58,21.92,24.85,26.45,23.15,31.15Z"/><path class="cls-1" d="M22.65,0A22.65,22.65,0,1,0,45.3,22.65,22.67,22.67,0,0,0,22.65,0Zm0,44.8A22.15,22.15,0,1,1,44.8,22.65,22.17,22.17,0,0,1,22.65,44.8Z"/></g></g></svg>