<svg xmlns="http://www.w3.org/2000/svg" viewBox="0 0 208.54 54.23"><defs><style>.cls-1{fill:#706f6f;}.cls-2{fill:none;stroke:#706f6f;stroke-miterlimit:10;stroke-width:0.5px;}</style></defs><title>Fichier 1</title><g id="Calque_2" data-name="Calque 2"><g id="Calque_1-2" data-name="Calque 1"><path class="cls-1" d="M145.42,21.26C141,9.23,123.4.5,103.47.5s-37.58,8.73-42,20.76L61,21.08C65.56,8.67,83,0,103.47,0s37.91,8.67,42.43,21.08Z"/><path class="cls-1" d="M103.47,54.23c-18.35,0-34.82-7.23-41-18l.43-.25C69,46.6,85.29,53.73,103.47,53.73S137.95,46.6,144,36l.43.25C138.29,47,121.82,54.23,103.47,54.23Z"/><path class="cls-2" d="M144.24,36.12"/><path class="cls-2" d="M62.7,36.12"/><path class="cls-1" d="M103.47,54.23c-13.39,0-25.41-7.24-29.9-18L74,36c4.42,10.59,16.25,17.71,29.44,17.71s25-7.12,29.44-17.71l.46.19C128.88,47,116.86,54.23,103.47,54.23Z"/><path class="cls-1" d="M73,21.23l-.48-.13C75.82,8.68,88.54,0,103.47,0s27.65,8.68,30.94,21.11l-.48.13C130.7,9,118.17.5,103.47.5S76.24,9,73,21.23Z"/><path class="cls-2" d="M133.14,36.12"/><path class="cls-2" d="M73.8,36.12"/><path class="cls-2" d="M72.77,21.17"/><path class="cls-2" d="M134.17,21.17"/><path class="cls-1" d="M103.47,54.23c-6.69,0-12.68-7.26-14.9-18.06l.49-.1c2.18,10.57,8,17.66,14.41,17.66s12.24-7.1,14.41-17.66l.49.1C116.15,47,110.16,54.23,103.47,54.23Z"/><path class="cls-1" d="M118.39,21.2C116.82,9.21,110.55.5,103.47.5S90.12,9.21,88.55,21.2l-.5-.06C89.68,8.69,96,0,103.47,0s13.79,8.69,15.42,21.14Z"/><path class="cls-2" d="M118.13,36.12"/><path class="cls-2" d="M88.81,36.12"/><path class="cls-2" d="M88.3,21.17"/><path class="cls-2" d="M118.64,21.17"/><path class="cls-2" d="M103.47,54"/><path class="cls-2" d="M103.47.25"/><rect class="cls-1" x="69.49" y="10.24" width="67.95" height="0.5"/><rect class="cls-1" x="69.5" y="43.5" width="67.95" height="0.5"/><path d="M3.5,25v2.53h8.64V30H3.5v4.81H0V22.5H12.44V25Z"/><path d="M17.69,22.5v6.44a3.37,3.37,0,0,0,3.73,3.56,3.4,3.4,0,0,0,3.71-3.56V22.5h3.5v6.8c0,3.56-2.57,6-7.22,6s-7.25-2.41-7.25-6V22.5Z"/><path d="M43.82,25.22H38.7v9.59H35.2V25.22H30.08V22.5H43.82Z"/><path d="M48.81,22.5v6.44a3.37,3.37,0,0,0,3.73,3.56,3.4,3.4,0,0,0,3.71-3.56V22.5h3.5v6.8c0,3.56-2.57,6-7.22,6s-7.25-2.41-7.25-6V22.5Z"/><path d="M69.52,30.46H66v4.35h-3.5V22.5h8.4c4,0,5.1,2,5.1,3.9a3.74,3.74,0,0,1-2.76,3.66l3.21,4.75h-4ZM66,28.22h4.09c1.68,0,2.19-.85,2.19-1.72s-.5-1.67-2.19-1.67H66Z"/><path d="M91.09,32.35v2.46H78.53V22.5H91V25H82v2.46h8.64v2.29H82v2.64Z"/><path d="M99.48,28.66c0-4,3.24-6.59,8.26-6.59S116,24.65,116,28.66s-3.26,6.59-8.26,6.59S99.48,32.65,99.48,28.66Zm12.8,0c0-2.39-1.82-4-4.54-4s-4.56,1.6-4.56,4,1.82,4,4.56,4S112.28,31.05,112.28,28.66Z"/><path d="M121.44,25v2.53h8.64V30h-8.64v4.81h-3.5V22.5h12.44V25Z"/><path d="M136.36,22.5h3.57l2.45,8a6,6,0,0,1,.26,1.18h.07a5,5,0,0,1,.33-1.18l2.95-8h3.66l2.93,8a5.09,5.09,0,0,1,.35,1.18H153a5,5,0,0,1,.26-1.18l2.45-8h3.56L155,34.82h-4L148.12,27a4.25,4.25,0,0,1-.26-1.08h-.09a4.25,4.25,0,0,1-.26,1.08l-2.88,7.86h-4Z"/><path d="M159.32,28.66c0-4,3.24-6.59,8.26-6.59s8.26,2.58,8.26,6.59-3.26,6.59-8.26,6.59S159.32,32.65,159.32,28.66Zm12.8,0c0-2.39-1.82-4-4.54-4s-4.56,1.6-4.56,4,1.82,4,4.56,4S172.13,31.05,172.13,28.66Z"/><path d="M184.84,30.46h-3.56v4.35h-3.5V22.5h8.4c4,0,5.1,2,5.1,3.9a3.74,3.74,0,0,1-2.76,3.66l3.21,4.75h-4Zm-3.56-2.24h4.09c1.68,0,2.19-.85,2.19-1.72s-.5-1.67-2.19-1.67h-4.09Z"/><path d="M200.12,29.21l-2.78,2.48v3.12h-3.5V22.5h3.5v5.73l6.56-5.73h4.32l-5.43,4.68,0,0,5.78,7.62h-4.08Z"/></g></g></svg>