<svg xmlns="http://www.w3.org/2000/svg" viewBox="0 0 238.1 54.23"><defs><style>.cls-1{fill:#706f6f;}.cls-2{fill:none;stroke:#706f6f;stroke-miterlimit:10;stroke-width:0.5px;}</style></defs><title>Fichier 3</title><g id="Calque_2" data-name="Calque 2"><g id="Calque_1-2" data-name="Calque 1"><path d="M3.5,25v2.53h8.64V30H3.5v4.81H0V22.51H12.44V25Z"/><path d="M17.69,22.51v6.44a3.37,3.37,0,0,0,3.73,3.56,3.4,3.4,0,0,0,3.71-3.56V22.51h3.5v6.8c0,3.56-2.57,6-7.22,6s-7.25-2.41-7.25-6V22.51Z"/><path d="M43.82,25.23H38.7v9.59H35.2V25.23H30.08V22.51H43.82Z"/><path d="M48.81,22.51v6.44a3.37,3.37,0,0,0,3.73,3.56,3.4,3.4,0,0,0,3.71-3.56V22.51h3.5v6.8c0,3.56-2.57,6-7.22,6s-7.25-2.41-7.25-6V22.51Z"/><path d="M69.52,30.47H66v4.35h-3.5V22.51h8.4c4,0,5.1,2,5.1,3.9a3.74,3.74,0,0,1-2.76,3.66l3.21,4.75h-4ZM66,28.23h4.09c1.68,0,2.19-.85,2.19-1.72s-.5-1.67-2.19-1.67H66Z"/><path d="M91.09,32.36v2.46H78.53V22.51H91V25H82v2.46h8.64v2.29H82v2.64Z"/><path d="M93.24,29.2a11,11,0,0,1,3.83-8l2.43,1.06a9.53,9.53,0,0,0-3.14,7,9.72,9.72,0,0,0,3.17,7L97,37.32A11.54,11.54,0,0,1,93.24,29.2Z"/><path d="M99.31,32.1l2.5-1.75a6.44,6.44,0,0,0,5.43,2.43c2.24,0,3.28-.47,3.28-1.44,0-.76-.52-1.08-2-1.23l-3.78-.42c-3-.33-4.48-1.44-4.48-3.71,0-2.45,2.39-3.9,6.61-3.9,3.11,0,5.53.82,7.08,2.55l-2.22,1.86c-.9-1.23-2.67-2-5-2-1.91,0-2.93.45-2.93,1.3s.5,1,2.08,1.2l3.38.35c3.4.35,4.81,1.35,4.81,3.63,0,2.74-2.53,4.27-7,4.27C103.42,35.26,100.57,34,99.31,32.1Z"/><path d="M114.41,36.25a9.72,9.72,0,0,0,3.17-7,9.53,9.53,0,0,0-3.14-7l2.43-1.06a11,11,0,0,1,3.83,8,11.54,11.54,0,0,1-3.78,8.12Z"/><path d="M129,28.67c0-4,3.24-6.59,8.26-6.59s8.26,2.58,8.26,6.59-3.26,6.59-8.26,6.59S129,32.66,129,28.67Zm12.8,0c0-2.39-1.82-4-4.54-4s-4.56,1.6-4.56,4,1.82,4,4.56,4S141.84,31.06,141.84,28.67Z"/><path d="M151,25v2.53h8.64V30H151v4.81h-3.5V22.51h12.44V25Z"/><path d="M165.92,22.51h3.57l2.45,8a6,6,0,0,1,.26,1.18h.07a5,5,0,0,1,.33-1.18l2.95-8h3.66l2.93,8a5.09,5.09,0,0,1,.35,1.18h.07a5,5,0,0,1,.26-1.18l2.45-8h3.56l-4.25,12.32h-4L177.68,27a4.25,4.25,0,0,1-.26-1.08h-.09a4.25,4.25,0,0,1-.26,1.08l-2.88,7.86h-4Z"/><path d="M188.88,28.67c0-4,3.24-6.59,8.26-6.59s8.26,2.58,8.26,6.59-3.26,6.59-8.26,6.59S188.88,32.66,188.88,28.67Zm12.8,0c0-2.39-1.82-4-4.54-4s-4.56,1.6-4.56,4,1.82,4,4.56,4S201.69,31.06,201.69,28.67Z"/><path d="M214.4,30.47h-3.56v4.35h-3.5V22.51h8.4c4,0,5.1,2,5.1,3.9a3.74,3.74,0,0,1-2.76,3.66l3.21,4.75h-4Zm-3.56-2.24h4.09c1.68,0,2.19-.85,2.19-1.72s-.5-1.67-2.19-1.67h-4.09Z"/><path d="M229.68,29.22l-2.78,2.48v3.12h-3.5V22.51h3.5v5.73l6.56-5.73h4.32l-5.43,4.68,0,0,5.78,7.62H234Z"/><path class="cls-1" d="M161,21.26C156.62,9.23,139,.5,119,.5s-37.58,8.73-42,20.76l-.47-.17C81.14,8.67,98.59,0,119,0S157,8.67,161.47,21.08Z"/><path class="cls-1" d="M119,54.23c-18.35,0-34.82-7.23-41-18L78.5,36C84.57,46.6,100.87,53.73,119,53.73S153.52,46.6,159.6,36l.43.25C153.87,47,137.4,54.23,119,54.23Z"/><path class="cls-2" d="M159.82,36.12"/><path class="cls-2" d="M78.28,36.12"/><path class="cls-1" d="M119,54.23c-13.39,0-25.41-7.24-29.9-18l.46-.19C94,46.61,105.85,53.73,119,53.73s25-7.12,29.44-17.71l.46.19C144.46,47,132.44,54.23,119,54.23Z"/><path class="cls-1" d="M88.59,21.23l-.48-.13C91.4,8.68,104.12,0,119,0S146.7,8.68,150,21.11l-.48.13C146.27,9,133.75.5,119,.5S91.82,9,88.59,21.23Z"/><path class="cls-2" d="M148.72,36.12"/><path class="cls-2" d="M89.38,36.12"/><path class="cls-2" d="M88.34,21.17"/><path class="cls-2" d="M149.75,21.17"/><path class="cls-1" d="M119,54.23c-6.69,0-12.68-7.26-14.9-18.06l.49-.1c2.18,10.57,8,17.66,14.41,17.66s12.24-7.1,14.41-17.66l.49.1C131.73,47,125.74,54.23,119,54.23Z"/><path class="cls-1" d="M134,21.2C132.4,9.21,126.12.5,119,.5S105.7,9.21,104.13,21.2l-.5-.06C105.26,8.69,111.6,0,119,0s13.79,8.69,15.42,21.14Z"/><path class="cls-2" d="M133.71,36.12"/><path class="cls-2" d="M104.39,36.12"/><path class="cls-2" d="M103.88,21.17"/><path class="cls-2" d="M134.22,21.17"/><path class="cls-2" d="M119,54"/><path class="cls-2" d="M119,.25"/><rect class="cls-1" x="85.07" y="10.24" width="67.95" height="0.5"/><rect class="cls-1" x="85.07" y="43.5" width="67.95" height="0.5"/></g></g></svg>