<?xml version="1.0" encoding="utf-8"?>
<!-- Generator: Adobe Illustrator 23.0.2, SVG Export Plug-In . SVG Version: 6.00 Build 0)  -->
<svg version="1.1" id="Calque_1" xmlns="http://www.w3.org/2000/svg" xmlns:xlink="http://www.w3.org/1999/xlink" x="0px" y="0px"
	 viewBox="0 0 33 28.9" style="enable-background:new 0 0 33 28.9;" xml:space="preserve">
<style type="text/css">
	.st0{fill:#090A0A;}
</style>
<title>LOGO_THECAMP</title>
<path class="st0" d="M31.7,13.6C29.4,8.8,26,4.7,21.8,1.4c-1.4-1.1-3.1-1.6-4.9-1.3c-1.6,0.2-3.2,0.9-4.5,2c-1.6,1.4-3.1,3-4.3,4.7
	c-2.7,3.5-5,7.3-6.9,11.3c-0.7,1.3-1.1,2.7-1.3,4.1c-0.3,2.5,1.1,4.9,3.4,5.9c1.6,0.6,3.3,0.9,5,0.8l0,0h0.6c0.5,0,1.2-0.1,1.9-0.2
	c4.2-0.6,8.4-1.4,12.5-2.4c2.2-0.5,4.3-1.3,6.2-2.4c2.3-1.2,3.6-3.7,3.2-6.3C32.8,16.3,32.3,14.9,31.7,13.6z M28.7,22.4
	c-1.8,1-3.7,1.8-5.7,2.2c-4.1,1-8.2,1.8-12.3,2.3c-0.6,0.1-1.2,0.1-1.7,0.1H8.4c-1.5,0-2.9-0.2-4.3-0.7c-1.6-0.7-2.6-2.3-2.3-4
	C2,21.1,2.4,19.9,3,18.8C4.8,14.9,7,11.3,9.6,7.9c1.1-1.6,2.5-3.1,4-4.4c1-0.9,2.2-1.5,3.6-1.7c1.3-0.2,2.5,0.2,3.5,1
	c4,3.1,7.2,7.1,9.4,11.6c0.5,1.1,0.9,2.3,1,3.5C31.4,19.7,30.4,21.6,28.7,22.4z"/>
</svg>
