<svg xmlns="http://www.w3.org/2000/svg" viewBox="0 0 34.95 30.66"><defs><style>.cls-1{fill:none;stroke:#fff;stroke-miterlimit:10;stroke-width:1.13px;}</style></defs><title>Fichier 4</title><g id="Calque_2" data-name="Calque 2"><g id="Calque_1-2" data-name="Calque 1"><path class="cls-1" d="M3.7,29.26a13,13,0,0,0,5,.84c.67,0,1.64-.07,2.6-.2a125.84,125.84,0,0,0,13.53-2.58,22.74,22.74,0,0,0,6.46-2.51,5.86,5.86,0,0,0,3.06-5.91,12.25,12.25,0,0,0-1.18-4.1A37.14,37.14,0,0,0,22.67,1.87,5.81,5.81,0,0,0,18.12.62a9,9,0,0,0-4.38,2A25.3,25.3,0,0,0,9.25,7.58,66.24,66.24,0,0,0,1.9,19.66a13.33,13.33,0,0,0-1.3,4.2A5.08,5.08,0,0,0,3.7,29.26Z"/></g></g></svg>