<svg id="Calque_1" data-name="Calque 1" xmlns="http://www.w3.org/2000/svg" viewBox="0 0 113.34 66.48"><defs><style>.cls-1{fill:#090a0a;}</style></defs><title>LOGO_THECAMP</title><path class="cls-1" d="M84.23,22.79a34.79,34.79,0,0,0-9.9-12.2,6.17,6.17,0,0,0-4.86-1.33,9,9,0,0,0-4.47,2A24.07,24.07,0,0,0,60.71,16a61.72,61.72,0,0,0-6.86,11.27,13.12,13.12,0,0,0-1.28,4.15A5.52,5.52,0,0,0,56,37.29a12.77,12.77,0,0,0,5,.84h0l.6,0c.53,0,1.2-.07,1.86-.16A115.72,115.72,0,0,0,76,35.55a22.11,22.11,0,0,0,6.19-2.41,6.23,6.23,0,0,0,3.24-6.28A12.18,12.18,0,0,0,84.23,22.79Zm-3,8.83a20.12,20.12,0,0,1-5.7,2.2,113.84,113.84,0,0,1-12.35,2.35c-.59.08-1.19.11-1.72.14l-.53,0a11.18,11.18,0,0,1-4.26-.7,3.8,3.8,0,0,1-2.32-4.05A11.54,11.54,0,0,1,55.47,28a59.94,59.94,0,0,1,6.66-10.94,22.54,22.54,0,0,1,4-4.38A7.32,7.32,0,0,1,69.7,11a4.45,4.45,0,0,1,3.51,1,33,33,0,0,1,9.42,11.58,10.41,10.41,0,0,1,1,3.47A4.47,4.47,0,0,1,81.23,31.62Z" transform="translate(-12.94 -9.2)"/><path class="cls-1" d="M107,57.21a6,6,0,0,0-4.17-1.14,5.41,5.41,0,0,0-4.69,2.77L98,59.1a5.24,5.24,0,0,0-4.84-3,5.66,5.66,0,0,0-5.29,2.47V56.29H86.21V69.87h1.65c0-2.56,0-5.07,0-7.58a4.33,4.33,0,0,1,3.95-4.59c1.94-.26,4,.44,4.7,2.71a6.48,6.48,0,0,1,.23,1.75c0,2.4,0,4.8,0,7.2v.51h1.67v-.5c0-2.34,0-4.67,0-7A6.23,6.23,0,0,1,98.58,61a4.4,4.4,0,0,1,5-3.33A3.7,3.7,0,0,1,107,60.41a7,7,0,0,1,.25,1.84c0,2.38,0,4.77,0,7.15v.45H109v-.48c0-2.75,0-5.49,0-8.24A4.87,4.87,0,0,0,107,57.21Z" transform="translate(-12.94 -9.2)"/><path class="cls-1" d="M125.54,59.78A6.74,6.74,0,0,0,114.78,58c-.22.23-.41.47-.68.78V56.29h-1.63V75.68h1.66V67.47c.06,0,.09,0,.11.06,1.87,2.75,5.68,3.13,8.26,1.89C126.12,67.67,127.15,63.17,125.54,59.78Zm-6.29,8.73a5.44,5.44,0,1,1,5.32-5.44A5.19,5.19,0,0,1,119.25,68.51Z" transform="translate(-12.94 -9.2)"/><path class="cls-1" d="M80.76,58.7a1.75,1.75,0,0,1-.16-.15c-2-2.85-6.13-3.15-8.79-1.46a7.39,7.39,0,0,0-2.19,9.69c2.39,4.22,8.49,4.35,10.95.87a1.79,1.79,0,0,1,.21-.2v2.41H82.4V56.28H80.76Zm-4.23,9.75A5.2,5.2,0,0,1,70.47,64a5.5,5.5,0,0,1,1.93-5.28A5.2,5.2,0,0,1,80.75,62c.06.37.09.75.13,1.12A5.22,5.22,0,0,1,76.54,68.45Z" transform="translate(-12.94 -9.2)"/><path class="cls-1" d="M66.74,59.25l1.12-1.05A7.1,7.1,0,0,0,60,56.59c-2.78,1.14-4.32,3.89-4.09,7.28a6.71,6.71,0,0,0,5,6c2.61.68,5.86-.21,7-1.92l-1-1.12a5.44,5.44,0,0,1-7.64.25,5.84,5.84,0,0,1-.23-7.75A5.41,5.41,0,0,1,66.74,59.25Z" transform="translate(-12.94 -9.2)"/><path class="cls-1" d="M54.05,63.48a20.82,20.82,0,0,0-.27-2.11,6.32,6.32,0,0,0-10.13-3.8A6.75,6.75,0,0,0,41,64a6.47,6.47,0,0,0,2.33,4.63,7.28,7.28,0,0,0,9.33-.33c.68-.62.68-.62,0-1.27,0,0-.05,0-.08,0A6.41,6.41,0,0,1,45,68.44c-1.78-.94-3.12-3.27-2.84-5Zm-12-.94a5.56,5.56,0,0,1,5.59-5.3c2.81,0,5,2.2,5.21,5.3Z" transform="translate(-12.94 -9.2)"/><path class="cls-1" d="M36.8,57.95c-1.95-2.2-6.88-2.5-9.08.46-.1.13-.21.26-.4.48v-9.7h-.94V69.85h1c0-.21,0-.39,0-.57,0-2.43,0-4.87,0-7.3a4.57,4.57,0,0,1,3-4.4,5.19,5.19,0,0,1,5.6,1,4.69,4.69,0,0,1,1.24,3.58c0,2.39,0,4.77,0,7.16v.52h.95a1.21,1.21,0,0,0,0-.19c0-2.76,0-5.53,0-8.29A5.25,5.25,0,0,0,36.8,57.95Z" transform="translate(-12.94 -9.2)"/><path class="cls-1" d="M20.17,69.1a2.85,2.85,0,0,1-2.77-2.19,6.83,6.83,0,0,1-.21-1.7c0-2.42,0-4.83,0-7.25V57.4h6.67v-1H17.17V51.94h-1v4.53H12.94v.95H16.2V58c0,2.6,0,5.2,0,7.79a3.92,3.92,0,0,0,4.22,4.27,5.56,5.56,0,0,0,3.88-1.36L23.79,68A5,5,0,0,1,20.17,69.1Z" transform="translate(-12.94 -9.2)"/></svg>