<?xml version="1.0" encoding="utf-8"?>
<!-- Generator: Adobe Illustrator 23.0.2, SVG Export Plug-In . SVG Version: 6.00 Build 0)  -->
<svg version="1.1" id="Calque_1" xmlns="http://www.w3.org/2000/svg" xmlns:xlink="http://www.w3.org/1999/xlink" x="0px" y="0px"
	 viewBox="0 0 113.3 26.5" style="enable-background:new 0 0 113.3 26.5;" xml:space="preserve">
<style type="text/css">
	.st0{fill:#090A0A;}
</style>
<title>LOGO_THECAMP</title>
<path class="st0" d="M94.1,8c-1.2-0.9-2.7-1.3-4.2-1.1c-1.9,0-3.7,1.1-4.7,2.8l-0.1,0.3c-0.9-1.9-2.8-3-4.8-3
	c-2.1-0.2-4.1,0.7-5.3,2.5V7.1h-1.7v13.6h1.7c0-2.6,0-5.1,0-7.6c-0.2-2.3,1.6-4.4,3.9-4.6c1.9-0.3,4,0.4,4.7,2.7
	c0.2,0.6,0.2,1.2,0.2,1.8c0,2.4,0,4.8,0,7.2v0.5h1.7v-0.5c0-2.3,0-4.7,0-7c0-0.5,0.1-0.9,0.2-1.4c0.5-2.3,2.7-3.7,5-3.3
	c1.6,0.1,3,1.2,3.4,2.7c0.2,0.6,0.2,1.2,0.2,1.8c0,2.4,0,4.8,0,7.2v0.4h1.8v-0.5c0-2.8,0-5.5,0-8.2C96.1,10.4,95.3,8.9,94.1,8z"/>
<path class="st0" d="M112.6,10.6c-1.7-3.3-5.7-4.7-9-3c-0.6,0.3-1.2,0.7-1.7,1.2c-0.2,0.2-0.4,0.5-0.7,0.8V7.1h-1.6v19.4h1.7v-8.2
	c0.1,0,0.1,0,0.1,0.1c1.9,2.8,5.7,3.1,8.3,1.9C113.2,18.5,114.2,14,112.6,10.6z M106.3,19.3c-3,0.1-5.5-2.3-5.6-5.3s2.3-5.5,5.3-5.6
	c3-0.1,5.5,2.3,5.6,5.3c0,0,0,0.1,0,0.1c0.1,2.9-2.1,5.3-4.9,5.4C106.6,19.3,106.4,19.3,106.3,19.3z"/>
<path class="st0" d="M67.8,9.5c-0.1,0-0.1-0.1-0.2-0.2c-2-2.8-6.1-3.2-8.8-1.5c-3.1,2.2-4.1,6.4-2.2,9.7c2.4,4.2,8.5,4.3,10.9,0.9
	c0.1-0.1,0.1-0.1,0.2-0.2v2.4h1.6V7.1h-1.6V9.5z M63.6,19.3c-2.8,0.5-5.5-1.4-6-4.2c0-0.1,0-0.2,0-0.2c-0.4-2,0.4-4,1.9-5.3
	c2.3-1.8,5.5-1.4,7.3,0.9c0.5,0.7,0.9,1.5,1,2.4c0.1,0.4,0.1,0.8,0.1,1.1C68,16.5,66.2,18.8,63.6,19.3L63.6,19.3z"/>
<path class="st0" d="M53.8,10.1l1.1-1c-2-2.1-5.2-2.7-7.9-1.6c-2.8,1.1-4.3,3.9-4.1,7.3c0.2,2.9,2.2,5.3,5,6c2.6,0.7,5.9-0.2,7-1.9
	l-1-1.1c-2,2.2-5.5,2.3-7.6,0.2c-2-2.2-2.1-5.5-0.2-7.8C48.2,8,51.6,7.9,53.8,10.1C53.8,10,53.8,10,53.8,10.1z"/>
<path class="st0" d="M41.1,14.3c-0.1-0.7-0.1-1.4-0.3-2.1c-0.6-3.4-3.9-5.7-7.4-5.1c-1,0.2-2,0.6-2.8,1.3c-2,1.5-3,4-2.6,6.4
	c0.1,1.8,0.9,3.5,2.3,4.6c2.8,2.2,6.7,2,9.3-0.3c0.7-0.6,0.7-0.6,0-1.3c0,0,0,0-0.1,0c-1.9,2.1-5,2.7-7.6,1.4
	c-1.8-0.9-3.1-3.3-2.8-5L41.1,14.3z M29.1,13.4c0.1-3,2.6-5.3,5.6-5.3c2.8,0,5,2.2,5.2,5.3H29.1z"/>
<path class="st0" d="M23.9,8.8c-2-2.2-6.9-2.5-9.1,0.5c-0.1,0.1-0.2,0.3-0.4,0.5V0h-0.9v20.7h1c0-0.2,0-0.4,0-0.6c0-2.4,0-4.9,0-7.3
	c0-2,1.2-3.7,3-4.4c1.9-0.8,4.1-0.4,5.6,1c0.9,1,1.3,2.3,1.2,3.6c0,2.4,0,4.8,0,7.2v0.5h1c0-0.1,0-0.1,0-0.2c0-2.8,0-5.5,0-8.3
	C25.2,10.9,24.7,9.7,23.9,8.8z"/>
<path class="st0" d="M7.2,19.9c-1.3,0-2.5-0.9-2.8-2.2c-0.1-0.6-0.2-1.1-0.2-1.7c0-2.4,0-4.8,0-7.2V8.2h6.7v-1H4.2V2.8h-1v4.5H0v1
	h3.3v0.6c0,2.6,0,5.2,0,7.8c-0.2,2.2,1.4,4.1,3.5,4.3c0.2,0,0.5,0,0.7,0c1.4,0.1,2.8-0.4,3.9-1.4l-0.5-0.7C9.8,19.6,8.5,20,7.2,19.9
	z"/>
</svg>
